<?xml version="1.0" encoding="UTF-8"?>
<svg width="295px" height="222px" viewBox="0 0 295 222" version="1.1" xmlns="http://www.w3.org/2000/svg" xmlns:xlink="http://www.w3.org/1999/xlink">
    <title>illustration-course-detail</title>
    <g id="illustration-course-detail" stroke="none" stroke-width="1" fill="none" fill-rule="evenodd">
        <g id="Illustrations/1x1/Temp-" transform="translate(59, 7)">
            <g id="Group-297" transform="translate(0, 0)">
                <g id="Group-49" transform="translate(136, 74)" stroke="#E3E6EB" stroke-linecap="round" stroke-linejoin="round" stroke-width="2">
                    <path d="M41.3525363,16.5723379 C36.8136707,18.0161862 25.2392705,21 25.2392705,21 C24.8818033,21 24.5918068,20.7025067 24.5918068,20.3357985 L24.5918068,8.35535772 C24.5918068,7.98838832 24.8950428,7.79040768 25.2392705,7.69115617 C29.3506522,6.50431707 41.3525363,3.2634941 41.3525363,3.2634941 C41.7100035,3.2634941 42,3.56072625 42,3.92769565 L42,15.9081364 C42,16.2751058 41.6939633,16.4636836 41.3525363,16.5723379 Z" id="Stroke-1"></path>
                    <path d="M33.0495209,7.71957344 C33.0495209,7.71957344 38.8209354,6.79679559 39.9720103,6.0341261" id="Stroke-3"></path>
                    <line x1="33.2959288" y1="9.31572054" x2="39.9719594" y2="7.84627583" id="Stroke-5"></line>
                    <path d="M30.5304721,11.2491661 C30.5304721,12.2205249 29.7951693,13.0080073 28.8880072,13.0080073 C27.9808451,13.0080073 27.2455423,12.2205249 27.2455423,11.2491661 C27.2455423,10.2778072 27.9808451,9.49032484 28.8880072,9.49032484 C29.7951693,9.49032484 30.5304721,10.2778072 30.5304721,11.2491661 Z" id="Stroke-7"></path>
                    <path d="M26.4013443,18.3973381 L26.3473678,17.8096647 C26.2355957,16.5948785 26.5070059,15.3649433 27.1689822,14.351272 C27.1799302,14.3345559 27.1908783,14.3178399 27.202081,14.3011239 C27.9895781,13.1255158 29.6597951,12.6945553 30.837349,13.4530458 C31.6217909,13.958445 32.3239949,14.8733872 32.3239949,15.9868324 L32.3239949,16.7061446 C32.3239949,17.3149743 26.4013443,19.0061678 26.4013443,18.3973381 Z" id="Stroke-9"></path>
                    <path d="M32.5698173,4.43975508 C35.5031359,3.63790736 38.2834362,2.88464064 39.5648694,2.53804392 C40.0285074,2.41241241 40.5219343,2.52655164 40.8885673,2.8436341 L41.312996,3.21034231" id="Stroke-11"></path>
                    <path d="M25.0198253,20.959986 C25.0198253,20.959986 24.0372998,20.3347015 23.5431091,20.1207883 L23.5201945,14.8296381 L23.5196853,14.7134094 L23.5431091,7.58506153 C23.5431091,7.21104005 23.7857488,6.88272651 24.1368509,6.78138549 C25.5404951,6.37523787 27.9070602,5.71887197 30.4024561,5.03351418" id="Stroke-13"></path>
                    <path d="M32.4163406,0 L32.4163406,4.70138728 C32.4163406,4.70138728 31.5292924,5.34208189 30.6524285,4.96492616 L30.5304721,0.476407245" id="Stroke-15"></path>
                    <polygon id="Stroke-17" points="40.1175941 14.8418617 34.8273854 16.1478027 34.8273854 11.9565159 40.1175941 10.650575"></polygon>
                    <polyline id="Stroke-19" points="34.9854705 12.1317209 37.7168863 13.6688134 39.7211467 10.9699559"></polyline>
                    <line x1="34.9854705" y1="16.1087811" x2="36.994823" y2="13.3992149" id="Stroke-21"></line>
                    <line x1="40.1175941" y1="14.8418617" x2="38.2844291" y2="13.2334649" id="Stroke-23"></line>
                    <path d="M33.2959288,10.6216615 C33.2959288,10.6216615 34.9854959,10.4043529 36.3891402,10.128277" id="Stroke-25"></path>
                    <path d="M1.05109099,15.0673194 C0.913858218,14.0377156 1.35432703,13.824586 1.69855469,13.7253345 C5.80993643,12.5384954 17.8118205,9.29767244 17.8118205,9.29767244 C18.1692877,9.29767244 18.4590296,9.59490459 18.4590296,9.96187399 L18.4590296,20.8369663" id="Stroke-27"></path>
                    <path d="M9.50872875,13.7536995 C9.50872875,13.7536995 15.2801433,12.8309217 16.4312181,12.0682522" id="Stroke-29"></path>
                    <line x1="9.75513668" y1="15.3498466" x2="16.4311672" y2="13.8804019" id="Stroke-31"></line>
                    <path d="M4.30325302,15.925427 C4.58713899,15.6749476 4.95071672,15.5245032 5.34713865,15.5245032 C6.12190547,15.5245032 6.77140602,16.098856 6.94453827,16.8717118 C6.9740726,17.003873 6.98960358,17.1415192 6.98960358,17.2833444" id="Stroke-33"></path>
                    <path d="M9.02902511,10.4738812 C11.9623437,9.67203346 14.742644,8.91876674 16.0240773,8.57217003 C16.4877152,8.44653851 16.9811422,8.56067775 17.3477752,8.8777602 L17.7722038,9.24446841" id="Stroke-35"></path>
                    <path d="M0,14.3361231 L0.00229145626,13.6194227 C0.00229145626,13.24514 0.244931214,12.9168265 0.596033235,12.8154855 C1.9999321,12.409599 4.36624261,11.7529719 6.86163848,11.0676142" id="Stroke-37"></path>
                    <path d="M8.87554846,6.03415222 L8.87554846,10.7355395 C8.87554846,10.7355395 7.98850028,11.3762341 7.11163635,10.9990784 L6.98967996,6.51055947" id="Stroke-39"></path>
                    <polyline id="Stroke-41" points="11.2866442 17.9907465 16.5768529 16.6848056 16.5768529 20.0925278"></polyline>
                    <polyline id="Stroke-43" points="11.4446783 18.165847 14.1760942 19.7029395 16.1803546 17.004082"></polyline>
                    <line x1="15.9759058" y1="20.3488056" x2="14.7436115" y2="19.2677477" id="Stroke-45"></line>
                    <path d="M9.75513668,16.6557876 C9.75513668,16.6557876 11.4447038,16.438479 12.848348,16.1624031" id="Stroke-47"></path>
                </g>
                <g id="Group-184">
                    <path d="M122.741368,19.8309541 C122.741368,19.8309541 119.00503,18.5454152 116.561863,17.7607422 C115.646919,17.4669993 114.113336,17.2769454 113.163428,17.4221609 C81.0447002,22.3368124 11.2795562,31.7151834 11.2795562,31.7151834 C10.366144,31.818108 9.68012779,32.5961572 9.69345756,33.5135622 L10.6808233,100.292037 C10.6872037,100.718002 10.8712132,101.121803 11.1886999,101.406629 L16.4670434,105.144781 L122.741368,19.8309541 Z" id="Fill-50" fill="#E3E6EB"></path>
                    <path d="M177.579611,41.0876693 L176.575853,40.2436363 C175.708634,39.5142471 174.541539,39.2515854 173.444883,39.540233 C167.085962,41.2145417 145.124766,47.0076194 136.953312,49.3068642 C136.1231,49.5404827 135.549378,50.2958579 135.549378,51.1569601 L135.548612,63.4230805 L135.548612,79.4077357 L137.83763,81.3391013 L177.579611,41.0876693 Z" id="Fill-52" fill="#E3E6EB"></path>
                    <path d="M177.0505,1.78342416 C176.396131,1.2430698 174.762248,7.64291885e-05 173.916468,7.64291885e-05 C173.916468,7.64291885e-05 146.46459,7.13601498 135.804541,10.1906349 C134.991683,10.4234891 134.273255,10.8749309 134.273255,11.7192186 L135.1785,40.9345307 C135.1785,41.7788184 138.356685,42.6055275 138.356685,42.6055275 L177.0505,1.78342416 Z" id="Fill-54" fill="#E3E6EB"></path>
                    <path d="M46.5624575,97.5007156 L18.0284705,105.479159 C16.8973604,105.770863 15.7948343,104.918678 15.7948343,103.752623 L15.0054563,37.1132496 C15.0054563,36.208328 15.6797326,35.3948667 16.5844676,35.3418758 C51.6100872,33.2917902 122.003059,19.7620405 122.003059,19.7620405 C123.064495,19.6382252 123.996793,20.4664628 123.996793,21.5334143 L123.996793,73.9640923 C123.996793,74.7770441 123.445785,75.487326 122.657173,75.6906276 L68.4131459,91.0615565" id="Fill-56" fill="#FFFFFF"></path>
                    <path d="M176.468714,32.4149181 C166.584006,35.2022906 138.356787,42.6054765 138.356787,42.6054765 C137.511006,42.6054765 136.825501,41.9211805 136.825501,41.0768928 L136.825501,13.5025154 C136.825501,12.6582277 137.543929,12.2067859 138.356787,11.9739317 C149.016836,8.91931176 176.468714,1.7833732 176.468714,1.7833732 C177.314494,1.7833732 178,2.4676692 178,3.31195697 L178,30.8863343 C178,31.7306221 177.282592,32.1853758 176.468714,32.4149181" id="Fill-58" fill="#FFFFFF"></path>
                    <path d="M176.468714,71.2405891 C165.733377,74.5634754 138.356787,81.4311475 138.356787,81.4311475 C137.511006,81.4311475 136.825501,80.7468515 136.825501,79.9025638 L136.825501,52.3281864 C136.825501,51.4838987 137.542653,51.0283807 138.356787,50.7996027 C148.080965,48.0680235 176.468714,40.6090442 176.468714,40.6090442 C177.314494,40.6090442 178,41.2933402 178,42.137628 L178,69.7120053 C178,70.5562931 177.276467,70.9906657 176.468714,71.2405891" id="Fill-60" fill="#FFFFFF"></path>
                    <path d="M124.346131,61.8346782 L128.482135,60.922878 C129.940174,60.6013658 131.321905,61.7093343 131.321905,63.1999582 C131.321905,63.8358491 131.924721,64.2997743 132.540809,64.1379991 C132.540809,64.1379991 134.820128,63.7219696 135.54851,63.5803208 C136.207984,63.9617025 136.391738,65.9817259 135.54902,66.6232216 C134.913792,67.0181057 131.611063,67.7291519 131.611063,67.7291519 C130.614195,68.0088828 129.582619,67.4119708 129.330467,66.4094746 L129.077295,65.4016284 C128.956068,64.6564438 128.236108,64.162966 127.495986,64.318372 L123.996742,65.052347" id="Fill-62" fill="#89D0D4"></path>
                    <path d="M135.603917,31.6604856 C131.236944,33.1783692 123.996768,34.6503954 123.996768,34.6503954 L123.996768,31.7631554 C123.996768,31.7631554 131.236944,30.4042445 135.603917,28.6705757 C136.238125,29.0680075 136.062537,31.0696879 135.603917,31.6604856" id="Fill-64" fill="#89D0D4"></path>
                    <path d="M20.3276712,119.189409 L27.8452655,116.244337 C28.3712623,116.045112 28.7015097,115.522081 28.6550607,114.962365 L27.6530891,102.943111 L31.2692215,101.709544 L32.3298924,116.330957 C32.3873156,117.121489 31.9212942,117.856738 31.1811725,118.143602 L20.7007946,122.204285" id="Fill-66" fill="#F14E5A"></path>
                    <path d="M11.7403713,131.874157 C6.15781223,132.807357 0,128.450384 0,122.123831 C0,115.797023 5.98401125,111.440049 11.5665703,112.37325 L11.7403713,131.874157 Z" id="Fill-68" fill="#E3E6EB"></path>
                    <path d="M20.7007435,122.123754 C20.7007435,126.70441 17.4334892,130.963809 12.757962,131.74517 C7.17514774,132.67837 1.51959738,128.418462 2.15508115,122.123754 C2.74998584,116.231573 7.17514774,111.569138 12.757962,112.502339 C17.4334892,113.2837 20.7007435,117.543098 20.7007435,122.123754" id="Fill-70" fill="#FFFFFF"></path>
                    <polygon id="Fill-72" fill="#F14E5A" points="7.42150617 128.330365 10.4991362 121.970692 6.33148561 119.301785 7.94239869 116.311366 12.2348491 119.039123 14.321737 115.010796 16.3073048 116.724593 14.1573789 120.887181 19.1121107 123.850341 17.9641564 126.496319 12.8989169 123.691623 10.0951319 129.422538"></polygon>
                    <path d="M146.986784,63.0367564 C149.132371,63.0367564 150.871657,61.2243656 150.871657,58.9888119 C150.871657,56.7532581 149.132371,54.9408673 146.986784,54.9408673 C144.841197,54.9408673 143.101911,56.7532581 143.101911,58.9888119 C143.101911,61.2243656 144.841197,63.0367564 146.986784,63.0367564" id="Fill-74" fill="#89D0D4"></path>
                    <path d="M151.597359,64.061519 C148.81195,62.3156216 144.861742,63.3076724 142.999187,66.0135205 C142.9729,66.0517351 142.946613,66.0899497 142.920836,66.1286738 C141.355096,68.4615474 140.713232,71.2927393 140.977379,74.0882642 L141.105241,75.4410609 C141.105241,76.8422626 155.113703,72.9499788 155.113703,71.5487771 L155.113703,69.8928113 C155.113703,67.3303954 153.453023,65.2247713 151.597359,64.061519" id="Fill-76" fill="#89D0D4"></path>
                    <path d="M146.986784,23.8031064 C149.132371,23.8031064 150.871657,21.9907156 150.871657,19.7551618 C150.871657,17.5196081 149.132371,15.7072173 146.986784,15.7072173 C144.841197,15.7072173 143.101911,17.5196081 143.101911,19.7551618 C143.101911,21.9907156 144.841197,23.8031064 146.986784,23.8031064" id="Fill-78" fill="#89D0D4"></path>
                    <path d="M151.597359,24.827869 C148.81195,23.0819716 144.861742,24.0740224 142.999187,26.7798705 C142.9729,26.818085 142.946613,26.8562996 142.920836,26.8950238 C141.355096,29.2278974 140.713232,32.0590893 140.977379,34.8546142 L141.105241,36.2074108 C141.105241,37.6086126 155.113703,33.7163288 155.113703,32.315127 L155.113703,30.6591613 C155.113703,28.0967454 153.453023,25.9911212 151.597359,24.827869" id="Fill-80" fill="#89D0D4"></path>
                    <path d="M46.5624575,97.5007156 L18.0284705,105.479159 C16.8973604,105.770863 15.7948343,104.918678 15.7948343,103.752623 L15.0054563,37.1132496 C15.0054563,36.208328 15.6797326,35.3948667 16.5844676,35.3418758 C51.6100872,33.2917902 122.003059,19.7620405 122.003059,19.7620405 C123.064495,19.6382252 123.996793,20.4664628 123.996793,21.5334143 L123.996793,73.9640923 C123.996793,74.7770441 123.445785,75.487326 122.657173,75.6906276 L68.4131459,91.0615565" id="Stroke-82" stroke="#4D5774" stroke-width="2" stroke-linecap="round" stroke-linejoin="round"></path>
                    <path d="M16.467069,105.144857 L11.1887254,101.406451 C10.8712388,101.12188 10.686974,100.717824 10.6808488,100.291859 L9.69348309,33.5136386 C9.68015331,32.5962336 10.3661695,31.8181845 11.2793265,31.7152598 C11.2793265,31.7152598 81.0447257,22.3368889 113.163199,17.4222373 C114.113362,17.2767671 115.646945,17.4670758 116.561888,17.7608186 C119.005055,18.5454916 122.741394,19.8310306 122.741394,19.8310306" id="Stroke-84" stroke="#4D5774" stroke-width="2" stroke-linecap="round" stroke-linejoin="round"></path>
                    <path d="M176.468714,32.4149181 C166.584006,35.2022906 138.356787,42.6054765 138.356787,42.6054765 C137.511006,42.6054765 136.825501,41.9211805 136.825501,41.0768928 L136.825501,13.5025154 C136.825501,12.6582277 137.543929,12.2067859 138.356787,11.9739317 C149.016836,8.91931176 176.468714,1.7833732 176.468714,1.7833732 C177.314494,1.7833732 178,2.4676692 178,3.31195697 L178,30.8863343 C178,31.7306221 177.282592,32.1853758 176.468714,32.4149181 Z" id="Stroke-86" stroke="#4D5774" stroke-width="2" stroke-linecap="round" stroke-linejoin="round"></path>
                    <path d="M176.468714,71.2405891 C165.733377,74.5634754 138.356787,81.4311475 138.356787,81.4311475 C137.511006,81.4311475 136.825501,80.7468515 136.825501,79.9025638 L136.825501,52.3281864 C136.825501,51.4838987 137.542653,51.0283807 138.356787,50.7996027 C148.080965,48.0680235 176.468714,40.6090442 176.468714,40.6090442 C177.314494,40.6090442 178,41.2933402 178,42.137628 L178,69.7120053 C178,70.5562931 177.276467,70.9906657 176.468714,71.2405891 Z" id="Stroke-88" stroke="#4D5774" stroke-width="2" stroke-linecap="round" stroke-linejoin="round"></path>
                    <path d="M135.603917,31.6604856 C131.236944,33.1783692 123.996768,34.6503954 123.996768,34.6503954 L123.996768,31.7631554 C123.996768,31.7631554 131.236944,30.4042445 135.603917,28.6705757 C136.238125,29.0680075 136.062537,31.0696879 135.603917,31.6604856 Z" id="Stroke-90" stroke="#4D5774" stroke-width="2" stroke-linecap="round" stroke-linejoin="round"></path>
                    <path d="M21.2111723,44.8409793 C21.2111723,44.8409793 46.7326089,43.9449745 55.9203261,41.085249" id="Stroke-92" stroke="#4D5774" stroke-width="2" stroke-linecap="round" stroke-linejoin="round"></path>
                    <path d="M21.2111723,55.0315378 C21.2111723,55.0315378 21.3244874,52.6538257 32.1004036,52.5404558 C42.8760646,52.4273406 55.9203261,50.3892289 55.9203261,50.3892289" id="Stroke-94" stroke="#4D5774" stroke-width="2" stroke-linecap="round" stroke-linejoin="round"></path>
                    <path d="M21.2111723,60.0118166 C21.2111723,60.0118166 28.1246742,60.2253088 40.4344288,58.3079552 C52.7444385,56.3903468 54.7861534,56.503462 54.7861534,56.503462" id="Stroke-96" stroke="#4D5774" stroke-width="2" stroke-linecap="round" stroke-linejoin="round"></path>
                    <path d="M21.2111723,67.798142 C21.2111723,67.798142 51.2698099,63.3313655 54.7861534,62.9746959" id="Stroke-98" stroke="#4D5774" stroke-width="2" stroke-linecap="round" stroke-linejoin="round"></path>
                    <path d="M21.2111723,76.0512715 C21.2111723,76.0512715 25.7483733,74.3935224 35.6734048,74.2804072" id="Stroke-100" stroke="#4D5774" stroke-width="2" stroke-linecap="round" stroke-linejoin="round"></path>
                    <path d="M41.4541888,73.0179499 C41.4541888,73.0179499 43.7636236,74.7195184 56.3541139,71.6766176" id="Stroke-102" stroke="#4D5774" stroke-width="2" stroke-linecap="round" stroke-linejoin="round"></path>
                    <path d="M22.1186125,83.5651014 C22.1186125,83.5651014 35.6733027,82.2064452 50.2488504,78.5829374" id="Stroke-104" stroke="#4D5774" stroke-width="2" stroke-linecap="round" stroke-linejoin="round"></path>
                    <path d="M23.7066073,91.9305818 C23.7066073,91.9305818 27.7900371,90.9250285 35.2762402,89.5594936 C43.7013768,88.0227574 46.0521564,88.2074613 46.0521564,88.2074613" id="Stroke-106" stroke="#4D5774" stroke-width="2" stroke-linecap="round" stroke-linejoin="round"></path>
                    <path d="M20.3276712,119.189409 L27.8452655,116.244337 C28.3712623,116.045112 28.7015097,115.522081 28.6550607,114.962365 L27.6530891,102.943111 L31.2692215,101.709544 L32.3298924,116.330957 C32.3873156,117.121489 31.9212942,117.856738 31.1811725,118.143602 L20.7007946,122.204285" id="Stroke-108" stroke="#4D5774" stroke-width="2" stroke-linecap="round" stroke-linejoin="round"></path>
                    <path d="M20.7007435,122.123754 C20.7007435,126.70441 17.4334892,130.963809 12.757962,131.74517 C7.17514774,132.67837 1.51959738,128.418462 2.15508115,122.123754 C2.74998584,116.231573 7.17514774,111.569138 12.757962,112.502339 C17.4334892,113.2837 20.7007435,117.543098 20.7007435,122.123754 Z" id="Stroke-110" stroke="#4D5774" stroke-width="2" stroke-linecap="round" stroke-linejoin="round"></path>
                    <path d="M11.7403713,131.874157 C6.15781223,132.807357 0,128.450384 0,122.123831 C0,115.797023 5.98401125,111.440049 11.5665703,112.37325" id="Stroke-112" stroke="#4D5774" stroke-width="2" stroke-linecap="round" stroke-linejoin="round"></path>
                    <polygon id="Stroke-114" stroke="#4D5774" stroke-width="2" stroke-linecap="round" stroke-linejoin="round" points="14.321737 115.010897 16.3073048 116.724695 10.0951319 129.42264 7.42150617 128.330467"></polygon>
                    <polyline id="Stroke-116" stroke="#4D5774" stroke-width="2" stroke-linecap="round" stroke-linejoin="round" points="10.3790834 121.766856 6.33163874 119.301759 7.94229661 116.31134 11.7403968 119.135144"></polyline>
                    <polyline id="Stroke-118" stroke="#4D5774" stroke-width="2" stroke-linecap="round" stroke-linejoin="round" points="14.4793829 120.88713 19.1122893 123.850544 18.1442612 126.496268 13.265073 123.524701"></polyline>
                    <polygon id="Stroke-120" stroke="#4D5774" stroke-width="2" stroke-linecap="round" stroke-linejoin="round" points="161.408948 8.86265225 161.408948 13.3635672 165.549035 12.3445113 165.549035 7.56055365"></polygon>
                    <polygon id="Stroke-122" stroke="#4D5774" stroke-width="2" stroke-linecap="round" stroke-linejoin="round" points="161.408948 18.5436828 161.408948 23.0445977 165.549035 22.0255418 165.549035 17.4963481"></polygon>
                    <polygon id="Stroke-124" stroke="#4D5774" stroke-width="2" stroke-linecap="round" stroke-linejoin="round" points="161.408948 28.2247133 161.408948 32.7256282 165.549035 31.7065724 165.549035 26.9226147"></polygon>
                    <polyline id="Stroke-126" stroke="#4D5774" stroke-width="2" stroke-linecap="round" stroke-linejoin="round" points="162.8835 10.7592171 163.961015 11.7782729 167.023587 7.98509231"></polyline>
                    <line x1="161.408948" y1="18.5436828" x2="165.549035" y2="21.7424991" id="Stroke-128" stroke="#4D5774" stroke-width="2" stroke-linecap="round" stroke-linejoin="round"></line>
                    <line x1="161.408948" y1="23.0445213" x2="165.549035" y2="17.8926844" id="Stroke-130" stroke="#4D5774" stroke-width="2" stroke-linecap="round" stroke-linejoin="round"></line>
                    <path d="M169.462365,7.98511779 C169.462365,7.98511779 173.035366,8.21160295 175.757738,6.45653402" id="Stroke-132" stroke="#4D5774" stroke-width="2" stroke-linecap="round" stroke-linejoin="round"></path>
                    <line x1="169.462365" y1="10.461984" x2="175.757738" y2="8.94766699" id="Stroke-134" stroke="#4D5774" stroke-width="2" stroke-linecap="round" stroke-linejoin="round"></line>
                    <path d="M169.263859,17.3830801 C169.263859,17.3830801 170.539931,17.1565949 174.680018,15.9110539" id="Stroke-136" stroke="#4D5774" stroke-width="2" stroke-linecap="round" stroke-linejoin="round"></path>
                    <path d="M169.263859,19.6334866 C169.263859,19.6334866 170.653246,19.0248555 171.957902,18.9682979" id="Stroke-138" stroke="#4D5774" stroke-width="2" stroke-linecap="round" stroke-linejoin="round"></path>
                    <path d="M169.263859,26.7810424 C169.263859,26.7810424 171.560788,25.8751017 173.432275,25.8751017" id="Stroke-140" stroke="#4D5774" stroke-width="2" stroke-linecap="round" stroke-linejoin="round"></path>
                    <path d="M169.263859,29.3145171 C169.263859,29.3145171 172.01456,28.705886 174.680018,28.0264305" id="Stroke-142" stroke="#4D5774" stroke-width="2" stroke-linecap="round" stroke-linejoin="round"></path>
                    <path d="M150.871708,19.5004234 C150.871708,21.7359771 149.132422,23.5483679 146.986835,23.5483679 C144.841248,23.5483679 143.101962,21.7359771 143.101962,19.5004234 C143.101962,17.2648696 144.841248,15.4524788 146.986835,15.4524788 C149.132422,15.4524788 150.871708,17.2648696 150.871708,19.5004234 Z" id="Stroke-144" stroke="#4D5774" stroke-width="2" stroke-linecap="round" stroke-linejoin="round"></path>
                    <path d="M141.105216,35.952545 L140.977353,34.6000031 C140.713207,31.8042234 141.355071,28.9730315 142.920811,26.6401579 C142.946588,26.6016885 142.972875,26.5632192 142.999162,26.5250046 C144.861716,23.8191566 148.811924,22.8273605 151.597334,24.5730031 C153.452997,25.7362554 155.113677,27.8418795 155.113677,30.4042954 L155.113677,32.0602612 C155.113677,33.461463 141.105216,37.3537468 141.105216,35.952545 Z" id="Stroke-146" stroke="#4D5774" stroke-width="2" stroke-linecap="round" stroke-linejoin="round"></path>
                    <polygon id="Stroke-148" stroke="#4D5774" stroke-width="2" stroke-linecap="round" stroke-linejoin="round" points="161.408948 48.3510662 161.408948 52.8519811 165.549035 51.8329253 165.549035 47.0489676"></polygon>
                    <polygon id="Stroke-150" stroke="#4D5774" stroke-width="2" stroke-linecap="round" stroke-linejoin="round" points="161.408948 58.0320968 161.408948 62.5330117 165.549035 61.5139558 165.549035 56.9847621"></polygon>
                    <polygon id="Stroke-152" stroke="#4D5774" stroke-width="2" stroke-linecap="round" stroke-linejoin="round" points="161.408948 67.7131273 161.408948 72.2140422 165.549035 71.1949864 165.549035 66.4110287"></polygon>
                    <polyline id="Stroke-154" stroke="#4D5774" stroke-width="2" stroke-linecap="round" stroke-linejoin="round" points="162.8835 50.2476311 163.961015 51.2666869 167.023587 47.4735063"></polyline>
                    <path d="M169.462365,47.4735318 C169.462365,47.4735318 173.035366,47.7000169 175.757738,45.944948" id="Stroke-156" stroke="#4D5774" stroke-width="2" stroke-linecap="round" stroke-linejoin="round"></path>
                    <line x1="169.462365" y1="49.950398" x2="175.757738" y2="48.436081" id="Stroke-158" stroke="#4D5774" stroke-width="2" stroke-linecap="round" stroke-linejoin="round"></line>
                    <path d="M169.263859,56.8714941 C169.263859,56.8714941 170.539931,56.6450089 174.680018,55.3994679" id="Stroke-160" stroke="#4D5774" stroke-width="2" stroke-linecap="round" stroke-linejoin="round"></path>
                    <path d="M169.263859,59.1219006 C169.263859,59.1219006 170.653246,58.5132695 171.957902,58.4567119" id="Stroke-162" stroke="#4D5774" stroke-width="2" stroke-linecap="round" stroke-linejoin="round"></path>
                    <path d="M169.263859,66.2694564 C169.263859,66.2694564 171.560788,65.3635157 173.432275,65.3635157" id="Stroke-164" stroke="#4D5774" stroke-width="2" stroke-linecap="round" stroke-linejoin="round"></path>
                    <path d="M169.263859,68.8029311 C169.263859,68.8029311 172.01456,68.1943 174.680018,67.5148445" id="Stroke-166" stroke="#4D5774" stroke-width="2" stroke-linecap="round" stroke-linejoin="round"></path>
                    <path d="M150.871708,58.9888373 C150.871708,61.2243911 149.132422,63.0367819 146.986835,63.0367819 C144.841248,63.0367819 143.101962,61.2243911 143.101962,58.9888373 C143.101962,56.7532836 144.841248,54.9408928 146.986835,54.9408928 C149.132422,54.9408928 150.871708,56.7532836 150.871708,58.9888373 Z" id="Stroke-168" stroke="#4D5774" stroke-width="2" stroke-linecap="round" stroke-linejoin="round"></path>
                    <path d="M141.105216,75.440959 L140.977353,74.0884171 C140.713207,71.2926374 141.355071,68.4614455 142.920811,66.1285719 C142.946588,66.0901025 142.972875,66.0516332 142.999162,66.0134186 C144.861716,63.3075705 148.811924,62.3157744 151.597334,64.0614171 C153.452997,65.2246693 155.113677,67.3302935 155.113677,69.8927094 L155.113677,71.5486752 C155.113677,72.9498769 141.105216,76.8421607 141.105216,75.440959 Z" id="Stroke-170" stroke="#4D5774" stroke-width="2" stroke-linecap="round" stroke-linejoin="round"></path>
                    <path d="M162.585741,59.872053 L163.882996,60.8274179 C163.882996,60.8274179 165.201689,58.8104516 166.775596,57.1333405" id="Stroke-172" stroke="#4D5774" stroke-width="2" stroke-linecap="round" stroke-linejoin="round"></path>
                    <path d="M134.790779,28.9294669 L134.273204,11.7191422 C134.273204,10.8751092 134.991632,10.4236675 135.80449,10.1905584 C146.464794,7.13593855 173.916672,0 173.916672,0 C174.762197,0 176.39608,1.24299337 177.050449,1.78334773" id="Stroke-174" stroke="#4D5774" stroke-width="2" stroke-linecap="round" stroke-linejoin="round"></path>
                    <path d="M138.356685,42.6054765 C138.356685,42.6054765 135.1785,41.7787675 135.1785,40.9344797 L134.913843,32.3879131" id="Stroke-176" stroke="#4D5774" stroke-width="2" stroke-linecap="round" stroke-linejoin="round"></path>
                    <path d="M135.548536,63.4230805 L135.549301,51.1569601 C135.549301,50.2958579 136.123023,49.5404827 136.953235,49.3068642 C145.124944,47.0076194 167.085885,41.2145417 173.445062,39.540233 C174.541718,39.2515854 175.708558,39.5142471 176.576031,40.2436363 L177.579534,41.0876693" id="Stroke-178" stroke="#4D5774" stroke-width="2" stroke-linecap="round" stroke-linejoin="round"></path>
                    <path d="M137.837579,81.3391268 C137.837579,81.3391268 135.513852,79.8997104 135.548816,79.4077612 L135.49369,66.9620322" id="Stroke-180" stroke="#4D5774" stroke-width="2" stroke-linecap="round" stroke-linejoin="round"></path>
                    <path d="M124.346131,61.8346782 L128.482135,60.922878 C129.940174,60.6013658 131.321905,61.7093343 131.321905,63.1999582 C131.321905,63.8358491 131.924721,64.2997743 132.540809,64.1379991 C132.540809,64.1379991 134.820128,63.7219696 135.54851,63.5803208 C136.207984,63.9617025 136.391738,65.9817259 135.54902,66.6232216 C134.913792,67.0181057 131.611063,67.7291519 131.611063,67.7291519 C130.614195,68.0088828 129.582619,67.4119708 129.330467,66.4094746 L129.077295,65.4016284 C128.956068,64.6564438 128.236108,64.162966 127.495986,64.318372 L123.996742,65.052347" id="Stroke-182" stroke="#4D5774" stroke-width="2" stroke-linecap="round" stroke-linejoin="round"></path>
                </g>
                <polygon id="Fill-185" fill="#E3E6EB" points="18.0145847 142 63 162.891502 62.8873811 208 17 185.014432"></polygon>
                <g id="Group-202" transform="translate(17, 84)">
                    <path d="M96.0949043,59.8906564 L95.7798308,33.7613055 C95.7798308,33.7613055 56.1988098,21.2196362 49.515718,15.7648805 C42.8326263,10.3101248 49.056801,15.7648805 49.056801,15.7648805 L48.9715699,40.770765 L96.0949043,59.8906564 Z" id="Fill-186" fill="#E3E6EB"></path>
                    <line x1="95.7797284" y1="33.7611777" x2="96.094802" y2="59.8905286" id="Stroke-188" stroke="#4D5774" stroke-width="2" stroke-linecap="round" stroke-linejoin="round"></line>
                    <path d="M77.8373509,27.7742644 C87.6921661,31.3333142 95.5283094,33.7773331 95.7796516,33.7612288 C95.7796516,33.7612288 153.586309,15.9186893 153.999923,15.7648038 L153.999923,75.4161453 C153.999923,75.4161453 72.5243557,111.557001 46.698817,125" id="Stroke-190" stroke="#4D5774" stroke-width="2" stroke-linecap="round" stroke-linejoin="round"></path>
                    <path d="M48.9714931,40.7708417 L49.0567242,15.7649572 C53.6807039,18.1463483 59.6681255,20.8122486 65.3087358,23.0824434" id="Stroke-192" stroke="#4D5774" stroke-width="2" stroke-linecap="round" stroke-linejoin="round"></path>
                    <path d="M6.02256343,56.0669338 L1.28315054,58.3905539 L46.6987914,79.283963 L96.0949555,59.8905542 C96.0949555,59.8905542 77.9404728,52.9161151 72.7385596,50.6134562 C55.4596794,42.9649372 49.2301298,40.8504174 49.2301298,40.8504174 L6.02256343,56.0669338 Z" id="Stroke-194" stroke="#4D5774" stroke-width="2" stroke-linecap="round" stroke-linejoin="round"></path>
                    <polyline id="Stroke-196" stroke="#4D5774" stroke-width="2" stroke-linecap="round" stroke-linejoin="round" points="46.6987146 79.2840653 46.6987146 124.999821 0 101.856667 1.28307376 58.3904005"></polyline>
                    <line x1="67.5903957" y1="10.7583355" x2="49.0568522" y2="15.7647272" id="Stroke-198" stroke="#4D5774" stroke-width="2" stroke-linecap="round" stroke-linejoin="round"></line>
                    <polyline id="Stroke-200" stroke="#4D5774" stroke-width="2" stroke-linecap="round" stroke-linejoin="round" points="154 15.7648294 107.41723 0 91.9353701 4.18200495"></polyline>
                </g>
                <g id="Group-257" transform="translate(68, 26)">
                    <path d="M41.0279835,82.8186066 C40.8365601,84.8375268 34.7955439,85.9211744 27.5345565,85.239162 C20.273569,84.5571497 14.5424276,82.3678542 14.7335942,80.3489339 C14.9250176,78.3300137 20.9662907,77.2463661 28.2272782,77.9283785 C35.4882656,78.6103908 41.2191501,80.7996863 41.0279835,82.8186066" id="Fill-203" fill="#E3E6EB"></path>
                    <polygon id="Fill-205" fill="#8CBFE2" points="27.4658753 80.7594204 18.9011527 84.5115116 21.4705952 93.8061683 16.7322864 97.2272303 19.2436594 93.4651621 13.9927468 81.2825695 19.4150412 79.1393213"></polygon>
                    <path d="M35.5167864,81.100529 C35.5167864,81.100529 35.9451125,82.2944343 34.1465028,83.3177086 C32.347893,84.340983 25.9242869,85.7904511 25.9242869,85.7904511 L25.6408774,95.6082568 L21.7867137,98.8771066 C21.6482208,99.1040177 21.2972349,98.9945274 21.3136793,98.7294993 L23.4139416,95.0398279 L20.2003399,83.1041001 L25.9242869,80.6740794 L35.5167864,81.100529 Z" id="Fill-207" fill="#8CBFE2"></path>
                    <path d="M35.4026004,81.2994791 C35.514885,81.2787578 34.8887119,83.2324443 34.1178792,83.3460277 C33.3470464,83.4596112 22.8192698,82.0822839 22.8192698,82.0822839 L24.8964071,81.3278749 L17.1855103,80.0203861 C17.1855103,80.0203861 19.4720572,79.2529304 19.5576196,79.2529304 C19.643439,79.2529304 33.546949,81.6404852 35.4026004,81.2994791" id="Fill-209" fill="#7DAEC9"></path>
                    <path d="M18.2930171,62.7257451 C17.5324621,65.532075 14.9732974,75.3529505 15.7030191,78.0006728 C15.7261441,78.0825348 30.5209938,82.9763443 39.8557782,80.3030401 L39.5166118,67.2409431 C39.5166118,67.2409431 38.9436261,55.9158543 33.2317555,53.7541873 C33.2317555,53.7541873 30.0918969,58.6147404 23.611763,54.493503 C23.611763,54.493503 22.4020695,55.4804511 20.9778275,55.7858985 C8.60390654,58.4402721 11.1882518,41.7023179 10.9110089,40.2280354 C10.8914812,40.1249405 8.60390654,40.5127615 8.60390654,40.5127615 C8.60390654,40.5127615 5.23922164,51.4996581 10.0355999,56.3318153 C13.3280834,59.6487591 18.3413226,61.2703931 18.7113223,61.0401564 L18.2930171,62.7257451 Z" id="Fill-211" fill="#E3E6EB"></path>
                    <path d="M35.6045072,55.7859241 C35.6045072,55.7859241 43.2843137,64.3415208 45.4254301,80.6287227 C45.4254301,80.6287227 43.0268556,82.1904952 42.6848628,81.2255475 C36.5182009,63.8298837 32.1501487,59.054774 32.1501487,59.054774" id="Fill-213" fill="#E3E6EB"></path>
                    <path d="M29.5625403,35.6688366 C29.5753875,35.6713947 29.5856653,35.6739529 29.5985125,35.6765111 C29.7629568,35.7123257 29.9299706,35.730233 30.0995538,35.7379076 C29.9222623,35.7097675 29.7424013,35.6867439 29.5625403,35.6688366" id="Fill-215" fill="#89D0D4"></path>
                    <polygon id="Fill-217" fill="#8CBFE2" points="9.51927041 35.2903785 0 22.8161527 20.6652548 7.18384636 31.1788995 20.9607005 10.9108804 36.1082306"></polygon>
                    <path d="M11.1603733,40.023841 C11.1603733,40.023841 14.9310301,34.333924 12.2639488,34.278923 C9.84764516,34.2290384 9.43833298,36.2507727 8.90954172,37.9084771 C8.38075046,39.5661815 8.69833355,40.2279842 8.69833355,40.2279842 L11.1603733,40.023841 Z" id="Fill-219" fill="#EDF0F2"></path>
                    <path d="M33.2625375,53.2346965 C37.9509991,46.5585988 35.486133,39.0574863 30.8601088,36.9254942 C26.8856952,35.0938331 23.2555869,36.322274 21.3583106,40.8062621 C19.1280345,46.0779157 20.4284293,51.175101 23.8188087,53.7552873 L22.9202746,54.9694023 C22.9202746,54.9694023 28.5147217,59.1717342 32.4973575,55.6936247 L33.2625375,53.2346965 Z" id="Fill-221" fill="#EDF0F2"></path>
                    <path d="M45.4254815,80.6287483 C45.4254815,80.6287483 45.4866343,80.6228645 45.5963495,80.6133992 C46.6819389,80.5207929 52.5107191,80.0958782 50.6286025,81.8226537 C48.5566041,83.7236416 43.8457883,81.8226537 43.8457883,81.8226537 L45.4254815,80.6287483 Z" id="Fill-223" fill="#EDF0F2"></path>
                    <path d="M19.6768931,39.3454101 C18.3803524,36.9010635 20.8932672,32.359772 23.6613275,32.574148 C39.8002525,33.824845 37.719518,46.9777576 36.0922901,47.3190196 C34.4650622,47.6600258 35.2785477,43.3111098 32.6664525,41.9892952 C30.0541004,40.6677364 23.37355,43.3538315 20.5042536,40.4543837 C20.1458164,40.0921446 19.8752541,39.7196727 19.6768931,39.3454101" id="Fill-225" fill="#89D0D4"></path>
                    <path d="M24.4150992,54.1692018 C20.5871438,51.7522278 19.0015409,46.3767118 21.3582335,40.8062621 C23.2555098,36.322274 26.8856181,35.0938331 30.8600317,36.9254942 C35.8414098,39.2212102 38.3165537,47.7417598 32.0540516,54.7547705" id="Stroke-227" stroke="#4D5774" stroke-width="2" stroke-linecap="round" stroke-linejoin="round"></path>
                    <path d="M22.0122851,55.5067237 C7.64499061,59.0006939 11.1602448,40.0238154 11.1602448,40.0238154 L8.69846202,40.2279586 C8.69846202,40.2279586 2.19237678,58.4404512 18.8264334,60.7435859" id="Stroke-229" stroke="#4D5774" stroke-width="2" stroke-linecap="round" stroke-linejoin="round"></path>
                    <polyline id="Stroke-231" stroke="#4D5774" stroke-width="2" stroke-linecap="round" stroke-linejoin="round" points="9.51927041 35.2903785 0 22.8161527 20.6652548 7.18384636 31.1788995 20.9607005 13.2182398 34.5472255"></polyline>
                    <polyline id="Stroke-233" stroke="#4D5774" stroke-width="2" stroke-linecap="round" stroke-linejoin="round" points="0.390914975 22.8113689 16.1806528 22.5995511 20.5242952 7.7344447"></polyline>
                    <line x1="14.2157744" y1="22.6302493" x2="11.8344152" y2="33.9489426" id="Stroke-235" stroke="#4D5774" stroke-width="2" stroke-linecap="round" stroke-linejoin="round"></line>
                    <line x1="16.7739113" y1="21.2487778" x2="29.9764775" y2="21.8704169" id="Stroke-237" stroke="#4D5774" stroke-width="2" stroke-linecap="round" stroke-linejoin="round"></line>
                    <path d="M8.69843633,40.228061 C8.69843633,40.228061 8.38085324,39.5662583 8.9096445,37.9085539 C9.43817881,36.2508494 9.84774794,34.2288593 12.2640516,34.2787439 C14.930876,34.3340008 11.1604761,40.0239177 11.1604761,40.0239177" id="Stroke-239" stroke="#4D5774" stroke-width="2" stroke-linecap="round" stroke-linejoin="round"></path>
                    <path d="M28.6670125,49.9020966 C28.6670125,49.9020966 25.5836816,53.824563 24.0420161,49.6746739" id="Stroke-241" stroke="#4D5774" stroke-width="2" stroke-linecap="round" stroke-linejoin="round"></path>
                    <path d="M23.5116318,54.3696612 C16.3171929,58.3491751 15.5892699,78.1444173 15.5892699,78.1444173 C15.5892699,78.1444173 31.1773064,82.8059436 39.742029,80.5319721 C39.742029,80.5319721 39.8471192,77.0436299 39.7746609,73.8939915" id="Stroke-243" stroke="#4D5774" stroke-width="2" stroke-linecap="round" stroke-linejoin="round"></path>
                    <path d="M20.2002885,84.0538522 L18.9011784,84.5115116 L21.4706209,93.8061683 L16.9324716,96.9829235 C16.824555,97.05839 16.6906871,96.931504 16.7610898,96.8207345 L19.2436851,93.4651621 L13.9925156,81.2825695 L19.4150669,79.1393213" id="Stroke-245" stroke="#4D5774" stroke-width="2" stroke-linecap="round" stroke-linejoin="round"></path>
                    <path d="M35.5167864,81.3563475 C35.5167864,81.3563475 35.9451125,82.2944343 34.1465028,83.3177086 C32.347893,84.340983 25.9242869,85.7904511 25.9242869,85.7904511 L25.6408774,95.6082568 L21.7867137,98.8771066 C21.6482208,99.1040177 21.2972349,98.9945274 21.3136793,98.7294993 L23.4139416,95.0398279 L20.015597,83.1007745 L25.9242869,80.6740794" id="Stroke-247" stroke="#4D5774" stroke-width="2" stroke-linecap="round" stroke-linejoin="round"></path>
                    <path d="M32.1500203,59.0547228 C32.1500203,59.0547228 36.5180724,63.8300883 42.6847343,81.2257521 C43.0267271,82.1906999 45.4255586,80.6286716 45.4255586,80.6286716 C43.2841853,64.3417255 35.404733,53.6257408 33.2317555,53.755185" id="Stroke-249" stroke="#4D5774" stroke-width="2" stroke-linecap="round" stroke-linejoin="round"></path>
                    <path d="M45.6610223,80.6074386 C45.6610223,80.6074386 52.2678297,79.9914275 50.6285254,81.8225769 C49.7721302,82.8458513 43.9885722,82.6578246 43.3698505,81.5240366" id="Stroke-251" stroke="#4D5774" stroke-width="2" stroke-linecap="round" stroke-linejoin="round"></path>
                    <path d="M29.8310471,9.4368918 C29.8310471,9.4368918 35.3394178,0.540033034 48.0152483,0" id="Stroke-253" stroke="#D1D2D3" stroke-width="2" stroke-linecap="round" stroke-linejoin="round"></path>
                    <path d="M33.5408595,14.0416263 C33.5408595,14.0416263 35.782698,7.73441912 42.1914014,6.87870595" id="Stroke-255" stroke="#D1D2D3" stroke-width="2" stroke-linecap="round" stroke-linejoin="round"></path>
                </g>
                <g id="Group-296" transform="translate(28, 72)">
                    <path d="M40.9920905,70.029295 C41.2237694,71.5055451 36.3373821,73.4930781 30.0779794,74.4687023 C23.8185766,75.4443265 18.5566659,75.038345 18.3249871,73.5620949 C18.0935628,72.0858448 22.97995,70.0983118 29.2390982,69.1226876 C35.498501,68.1470634 40.7604116,68.5530449 40.9920905,70.029295" id="Fill-258" fill="#E3E6EB"></path>
                    <path d="M24.3075972,29.1024054 C29.3146612,26.9200013 31.9619104,21.7807834 31.7309953,18.077725 C31.4626552,13.7778739 26.8395162,10.9027639 22.8416556,12.5414066 C17.6360098,14.6753467 15.5333332,25.1877291 19.538577,26.2658636 C19.538577,26.2658636 21.6058653,27.1849042 21.0544187,27.9461194 C20.5027175,28.7073347 21.6058653,29.1024054 21.6058653,29.1024054 L24.3075972,29.1024054 Z" id="Fill-260" fill="#EDF0F2"></path>
                    <path d="M28.0432534,58.020947 C28.0432534,58.020947 28.7683318,72.8915404 28.6782062,72.9087946 L23.661977,72.9610845 C23.4491379,72.9638559 23.3928731,72.669773 23.5914549,72.594159 L26.971675,71.5984895 C27.0373598,71.5548465 23.6767433,58.0427685 23.6767433,58.0427685 L28.0432534,58.020947 Z" id="Fill-262" fill="#89D0D4"></path>
                    <path d="M33.3986503,55.4803911 C33.3986503,55.4803911 34.1474058,70.4007173 34.0572802,70.4179715 L29.041051,70.4702613 C28.8282119,70.4730327 28.7719471,70.1786962 28.9707835,70.1030821 L32.3510036,69.1076663 C32.4166884,69.0640233 29.4491622,57.1700352 29.4491622,57.1700352 L33.3986503,55.4803911 Z" id="Fill-264" fill="#89D0D4"></path>
                    <path d="M23.2779247,33.2553927 C23.2779247,33.2553927 21.4097275,45.0080486 3.50731624,45.9390148 C2.28680144,46.0024494 2.0283904,43.1075478 3.46836364,42.9136917 C5.85898398,42.5916976 13.8837287,38.6123181 16.1605464,35.121385 C18.4371095,31.6304519 18.5873188,29.2118174 20.8638819,28.1062791 C20.8638819,28.1062791 22.0314415,29.4444955 24.0747982,29.1537113 C26.1179002,28.8626733 27.810938,27.0591007 27.810938,27.0591007 C27.810938,27.0591007 31.1511871,27.5277555 33.5863611,31.7844711 C36.5612704,36.9848399 37.8324491,46.5677786 38.140251,50.9820658 C38.140251,50.9820658 37.3179183,54.6874078 30.5951579,56.8312437 C22.3809965,59.450839 16.9110841,55.9492489 16.9110841,55.9492489 C16.9110841,55.9492489 16.3688028,47.1318391 16.7191216,43.4082279 C17.0694404,39.6846166 18.2953016,37.3573279 18.2953016,37.3573279 L23.2779247,33.2553927 Z" id="Fill-266" fill="#E3E6EB"></path>
                    <path d="M31.7447942,26.2123248 C31.7447942,26.2123248 36.5560768,19.0513193 29.6255691,5.70594748 C29.6255691,5.70594748 30.3445373,6.20936449 31.9594154,4.53189984 C31.9594154,4.53189984 41.8368273,21.2164692 34.7456719,28.8060389" id="Fill-268" fill="#E3E6EB"></path>
                    <path d="M34.4666389,35.9607009 C28.8605197,35.3212801 31.6635793,30.6651803 29.0361883,29.6781378 C25.5915564,28.3815345 26.2000316,23.8802151 26.8110528,21.4646254 C24.7361267,19.3585966 21.4340665,19.1327694 19.6773806,17.3819743 C16.874321,14.5883144 18.7455733,13.1800662 19.9116054,12.340192 C27.4169821,6.91780214 34.5659299,14.8217537 33.6086634,19.9421949 C33.4228111,20.9444616 33.2445966,21.9492658 33.0612902,22.908397 C33.1503975,24.1973881 37.938003,25.0197543 39.300071,26.9253298 C43.3353567,32.5684721 38.2855213,36.397131 34.4666389,35.9607009" id="Fill-270" fill="#8CBFE2"></path>
                    <polygon id="Fill-272" fill="#7DBCBC" points="24.2791338 59.7339857 28.1257667 59.7339857 28.1257667 57.8040514 23.6767688 58.0428192"></polygon>
                    <path d="M29.9367316,59.2828896 C29.9367316,59.2828896 32.7089856,59.0291512 33.3879829,58.1552761 L33.3879829,55.7046705 L29.3427681,57.3374772 L29.9367316,59.2828896 Z" id="Fill-274" fill="#7DBCBC"></path>
                    <path d="M31.959339,4.53177297 C31.959339,4.53177297 29.4101078,-1.82868783 27.6111596,0.520929873 C25.6291596,3.10931543 29.6254927,5.70582061 29.6254927,5.70582061 C29.6254927,5.70582061 31.45932,5.59620562 32.0912178,4.76089876 C32.7231155,3.9255919 31.959339,4.53177297 31.959339,4.53177297" id="Fill-276" fill="#EDF0F2"></path>
                    <path d="M3.4683891,42.9136156 C3.4683891,42.9136156 0.602190603,41.0136223 0.0825680129,42.8747936 C-0.1020113,43.5360359 0.00466281312,44.9305822 0.588442627,45.3573702 C1.17222244,45.7839045 2.84565668,45.8615485 2.84565668,45.8615485 L3.4683891,42.9136156 Z" id="Fill-278" fill="#EDF0F2"></path>
                    <path d="M23.6766924,58.0428446 C23.6766924,58.0428446 27.0375635,71.5549226 26.9718787,71.5985656 L23.5916586,72.5939814 C23.3928221,72.6695954 23.449087,72.9636782 23.6619261,72.9611572 L28.6781553,72.908617 C28.7682809,72.8916165 28.0432025,58.0210231 28.0432025,58.0210231" id="Stroke-280" stroke="#4D5774" stroke-width="2" stroke-linecap="round" stroke-linejoin="round"></path>
                    <path d="M29.5201679,57.4621389 C29.5201679,57.4621389 32.4166629,69.0640741 32.3509781,69.1077171 L28.9707581,70.1031329 C28.7719216,70.1787469 28.8281865,70.4730835 29.0410255,70.4703121 L34.0575093,70.4180222 C34.1473804,70.400768 33.4131366,55.8103018 33.4131366,55.8103018" id="Stroke-282" stroke="#4D5774" stroke-width="2" stroke-linecap="round" stroke-linejoin="round"></path>
                    <path d="M24.3075972,29.1024054 C29.3146612,26.9200013 31.9619104,21.7807834 31.7309953,18.077725 C31.4626552,13.7778739 26.8395162,10.9027639 22.8416556,12.5414066 C17.6360098,14.6753467 15.5333332,25.1877291 19.538577,26.2658636" id="Stroke-284" stroke="#4D5774" stroke-width="2" stroke-linecap="round" stroke-linejoin="round"></path>
                    <path d="M27.9998709,26.9252029 C36.033781,28.1507594 38.4585167,48.1930492 37.9623165,51.9027048 C37.8719363,52.577649 28.3038539,61.8687885 16.9111095,55.9490713 C16.9111095,55.9490713 16.9342774,53.7742794 16.778467,42.4481578" id="Stroke-286" stroke="#4D5774" stroke-width="2" stroke-linecap="round" stroke-linejoin="round"></path>
                    <path d="M20.9817326,28.2129507 C17.8449026,29.3496988 16.9808169,39.8014378 3.46833818,42.9135394 C2.0525512,43.2395933 2.28677598,46.0025509 3.50729078,45.9391163 C21.4099566,45.00815 23.2778992,33.2554942 23.2778992,33.2554942" id="Stroke-288" stroke="#4D5774" stroke-width="2" stroke-linecap="round" stroke-linejoin="round"></path>
                    <path d="M3.4683891,42.9136156 C3.4683891,42.9136156 0.602190603,41.0136223 0.0825680129,42.8747936 C-0.1020113,43.5360359 0.00466281312,44.9305822 0.588442627,45.3573702 C1.17222244,45.7839045 2.84565668,45.8615485 2.84565668,45.8615485" id="Stroke-290" stroke="#4D5774" stroke-width="2" stroke-linecap="round" stroke-linejoin="round"></path>
                    <path d="M31.959339,4.53177297 C31.959339,4.53177297 29.4101078,-1.82868783 27.6111596,0.520929873 C25.6291596,3.10931543 29.6254927,5.70582061 29.6254927,5.70582061" id="Stroke-292" stroke="#4D5774" stroke-width="2" stroke-linecap="round" stroke-linejoin="round"></path>
                    <path d="M32.8277783,14.2936733 C32.2842241,9.78271182 30.3213185,7.04106826 29.6255182,5.70589673 C29.6255182,5.70589673 30.344741,6.20931375 31.9593645,4.53184909 C31.9593645,4.53184909 39.0087667,16.4395391 36.9213656,24.7116651" id="Stroke-294" stroke="#4D5774" stroke-width="2" stroke-linecap="round" stroke-linejoin="round"></path>
                </g>
            </g>
        </g>
    </g>
</svg>